<?xml version="1.0" standalone="no"?>
<!DOCTYPE svg PUBLIC "-//W3C//DTD SVG 20010904//EN"
 "http://www.w3.org/TR/2001/REC-SVG-20010904/DTD/svg10.dtd">
<svg version="1.0" xmlns="http://www.w3.org/2000/svg"
 width="520.000000pt" height="520.000000pt" viewBox="0 0 520.000000 520.000000"
 preserveAspectRatio="xMidYMid meet">
<metadata>
Created by potrace 1.11, written by Peter Selinger 2001-2013
</metadata>
<g transform="translate(0.000000,520.000000) scale(0.100000,-0.100000)"
fill="#000000" stroke="none">
<path d="M2540 5050 c-47 -13 -87 -39 -120 -76 -67 -77 -64 -19 -64 -979 0
-866 0 -870 21 -915 45 -95 136 -151 238 -146 96 4 176 58 218 146 21 45 21
49 21 915 0 960 3 902 -64 979 -18 20 -51 47 -74 58 -42 22 -132 31 -176 18z"/>
<path d="M1715 4183 c-22 -8 -48 -17 -57 -20 -10 -3 -18 -9 -18 -13 0 -4 -8
-11 -17 -14 -10 -3 -27 -12 -38 -19 -11 -6 -38 -23 -60 -36 -22 -14 -43 -30
-47 -35 -4 -6 -8 -8 -8 -4 0 8 -108 -68 -135 -96 -9 -9 -20 -16 -25 -16 -9 0
-230 -217 -279 -275 -19 -22 -45 -57 -59 -77 -13 -21 -29 -38 -33 -38 -5 0 -9
-5 -9 -11 0 -6 -11 -25 -25 -43 -14 -18 -25 -38 -25 -44 0 -7 -4 -12 -8 -12
-8 0 -35 -46 -36 -62 -1 -4 -9 -17 -18 -28 -10 -11 -18 -25 -18 -32 0 -6 -8
-17 -17 -25 -11 -9 -12 -11 -3 -7 11 6 10 2 -2 -13 -10 -11 -18 -25 -18 -32 0
-6 -7 -23 -16 -36 -9 -14 -13 -25 -10 -25 4 0 0 -10 -8 -22 -9 -12 -16 -30
-16 -39 0 -10 -3 -19 -7 -21 -13 -5 -92 -267 -98 -323 -1 -11 -5 -36 -8 -55
-22 -116 -30 -199 -30 -335 0 -128 13 -310 23 -310 0 0 3 -20 6 -45 6 -53 12
-85 14 -85 2 0 4 -9 5 -20 2 -11 12 -50 23 -87 10 -37 17 -70 14 -73 -3 -3 0
-5 6 -5 7 0 12 -10 12 -23 0 -13 5 -28 12 -35 7 -7 9 -12 6 -12 -7 0 10 -42
62 -155 15 -33 30 -67 33 -75 4 -8 20 -37 37 -65 16 -27 35 -61 42 -75 7 -14
15 -27 19 -30 3 -3 24 -33 47 -66 23 -34 49 -69 57 -78 9 -9 14 -16 10 -16 -3
0 4 -11 17 -24 13 -13 52 -57 88 -97 36 -40 73 -80 84 -88 10 -9 33 -31 52
-48 19 -18 39 -33 45 -33 5 0 7 -4 4 -10 -3 -5 0 -10 9 -10 8 0 16 -4 18 -9
10 -27 348 -242 398 -253 8 -2 17 -5 20 -8 8 -8 151 -67 195 -81 22 -6 49 -15
60 -20 22 -9 178 -49 210 -53 11 -2 36 -6 55 -10 124 -21 179 -25 345 -25 171
0 245 3 245 9 0 3 19 6 43 8 43 2 102 10 102 12 0 2 19 6 64 15 19 3 37 8 41
10 3 2 20 7 36 10 38 8 58 13 62 15 1 2 7 4 12 5 6 1 11 3 13 5 3 2 40 11 55
12 6 1 12 6 12 11 0 6 3 8 6 4 8 -7 199 73 283 119 55 30 200 120 236 146 50
37 148 119 183 154 23 24 42 41 42 39 0 -3 14 9 30 27 17 17 30 34 30 39 0 4
9 11 20 14 11 3 20 11 20 17 0 6 15 27 32 47 58 65 74 87 94 119 10 18 22 32
26 32 4 0 8 5 8 10 0 9 35 65 50 80 12 12 131 246 134 263 1 7 12 35 25 62 12
28 23 58 24 68 1 9 4 17 7 17 4 0 7 6 8 13 1 12 8 38 37 137 9 30 18 73 21 95
6 48 12 80 14 80 7 0 22 157 24 242 1 29 6 53 11 53 7 0 7 3 0 8 -6 4 -11 32
-11 62 -1 71 -13 236 -19 252 -2 7 -7 28 -10 46 -16 96 -28 147 -59 247 -9 28
-16 51 -16 52 -2 9 -16 46 -37 98 -14 33 -27 70 -30 83 -3 12 -10 22 -15 22
-5 0 -6 5 -3 10 3 6 1 10 -4 10 -6 0 -11 7 -11 15 0 8 -9 30 -20 50 -11 19
-29 52 -41 73 -75 132 -165 252 -286 380 -40 42 -73 80 -73 84 0 4 -4 8 -10 8
-5 0 -20 11 -34 25 -14 14 -31 25 -37 25 -7 0 -9 3 -6 6 6 6 -159 134 -173
134 -3 0 -15 8 -26 18 -10 9 -36 26 -56 37 -21 11 -38 23 -38 28 0 4 -4 5 -10
2 -5 -3 -10 -1 -10 4 0 6 -6 11 -14 11 -8 0 -16 3 -18 8 -7 16 -110 55 -150
57 -89 3 -177 -52 -215 -134 -9 -20 -19 -40 -21 -45 -3 -5 1 -6 7 -1 10 6 11
3 3 -11 -24 -48 16 -154 75 -201 20 -15 42 -34 49 -40 7 -7 15 -13 19 -13 11
0 139 -77 164 -99 13 -12 30 -21 37 -21 7 0 14 -3 16 -7 2 -5 30 -30 63 -58
52 -44 162 -152 190 -187 6 -7 29 -36 52 -64 23 -28 40 -54 36 -58 -3 -3 -1
-6 5 -6 6 0 19 -15 28 -32 9 -18 20 -35 23 -38 4 -3 23 -36 41 -75 19 -38 39
-73 43 -76 5 -3 8 -9 8 -13 -1 -3 6 -23 15 -44 26 -60 43 -112 38 -112 -2 0 1
-10 8 -22 7 -13 13 -25 13 -28 0 -3 9 -38 19 -78 10 -40 16 -76 12 -79 -3 -3
-2 -11 3 -17 29 -36 34 -401 6 -541 -2 -11 -4 -20 -5 -20 -1 0 -3 -11 -5 -25
-18 -105 -85 -305 -110 -322 -5 -4 -6 -8 -1 -8 4 0 1 -11 -8 -25 -9 -13 -16
-31 -16 -40 0 -8 -3 -15 -8 -15 -4 0 -13 -14 -21 -31 -11 -26 -95 -158 -123
-194 -68 -88 -278 -298 -278 -278 0 4 -7 -3 -16 -15 -8 -12 -20 -22 -25 -22
-5 0 -19 -9 -31 -20 -12 -11 -34 -25 -49 -32 -15 -7 -25 -17 -22 -22 4 -5 -1
-7 -10 -3 -9 3 -18 0 -21 -9 -3 -9 -10 -13 -15 -9 -5 3 -13 1 -16 -5 -8 -12
-194 -101 -208 -99 -1 0 -27 -9 -57 -21 -30 -12 -55 -21 -55 -20 0 1 -18 -3
-40 -8 -22 -6 -53 -13 -70 -16 -16 -3 -41 -8 -55 -11 -71 -14 -92 -16 -169
-20 -46 -2 -86 -7 -89 -10 -3 -2 -11 0 -19 6 -7 6 -13 7 -13 3 0 -10 -63 -10
-79 1 -6 3 -11 1 -11 -5 0 -6 -5 -8 -11 -4 -7 4 -35 8 -63 10 -55 3 -106 10
-146 18 -14 3 -36 8 -50 11 -14 3 -34 7 -45 9 -11 2 -47 12 -80 22 -33 10 -63
17 -67 16 -5 -1 -8 3 -8 8 0 6 -6 10 -12 8 -7 -1 -34 8 -60 20 -27 12 -68 31
-92 42 -53 24 -210 120 -214 131 -2 5 -9 9 -16 9 -6 0 -18 8 -27 17 -8 10 -30
29 -49 43 -38 29 -160 145 -160 153 0 3 -20 26 -45 53 -25 26 -45 53 -45 61 0
7 -4 13 -9 13 -9 0 -106 149 -106 163 0 4 -6 11 -13 16 -8 5 -13 10 -12 12 1
2 -10 30 -24 61 -28 60 -42 97 -46 113 -1 6 -6 15 -10 20 -5 6 -11 22 -13 35
-3 14 -10 38 -17 55 -6 16 -18 59 -26 95 -14 61 -18 82 -28 155 -2 17 -5 30
-6 30 -1 0 -3 12 -4 28 -1 15 2 27 7 27 5 0 5 6 -1 13 -11 13 -4 332 8 332 1
0 3 11 5 25 10 75 45 211 57 226 5 7 8 16 7 20 -2 9 0 16 30 89 32 80 115 237
139 263 6 7 12 21 12 29 0 9 3 14 6 10 4 -3 18 11 33 33 32 48 103 131 158
185 51 50 142 129 155 134 6 2 19 11 29 20 32 29 64 50 124 82 22 12 48 28 58
37 9 8 17 12 17 8 0 -4 7 -1 15 6 33 30 45 38 55 38 5 0 10 5 10 10 0 6 9 19
20 30 11 11 20 27 20 35 0 8 4 15 8 15 9 0 10 4 15 70 7 89 -50 183 -131 217
-49 20 -112 23 -157 6z"/>
</g>
</svg>
